<svg width="18" height="17" viewBox="0 0 18 17" fill="none" xmlns="http://www.w3.org/2000/svg">
<path d="M8.25142 3.64487C8.44094 3.88743 8.7316 4.0292 9.03942 4.0292C9.34724 4.0292 9.6379 3.88743 9.82742 3.64487C10.6883 2.543 11.7597 1.8207 12.7583 1.57027C13.7209 1.32886 14.6123 1.51595 15.3323 2.23597C16.305 3.20875 16.8107 4.25638 16.9555 5.32078C17.1014 6.39268 16.8908 7.55543 16.3069 8.76028C15.1749 11.0959 12.6764 13.5001 9.03942 15.4058C5.40243 13.5001 2.90412 11.0959 1.77232 8.76029C1.18847 7.55545 0.977944 6.39269 1.12383 5.32077C1.26869 4.25634 1.77441 3.20869 2.74716 2.2359C3.46718 1.51586 4.35844 1.32883 5.32083 1.57023C6.31922 1.82066 7.39047 2.54294 8.25142 3.64487Z" stroke="#A2A8B0" stroke-width="2" stroke-linecap="round" stroke-linejoin="round"/>
</svg>
