<svg width="30" height="30" viewBox="0 0 30 30" fill="none" xmlns="http://www.w3.org/2000/svg">
<path fill-rule="evenodd" clip-rule="evenodd" d="M20.6397 0.000126154C21.6554 -0.00545931 22.6616 0.174481 23.6001 0.529095C24.5385 0.883695 25.3899 1.40567 26.1056 2.06395C26.8211 2.72219 27.3864 3.50364 27.77 4.36257C28.1534 5.22147 28.3476 6.1413 28.3415 7.06886C28.3355 7.99643 28.1294 8.91405 27.7347 9.76865C27.3413 10.6208 26.7678 11.3939 26.0466 12.0429L13.9587 23.148L13.9506 23.1553C13.0803 23.9312 11.9944 24.5054 10.7308 24.5283C9.44857 24.5515 8.30492 24.0018 7.34816 23.1295C6.22318 22.1038 5.91419 20.8724 6.07697 19.7723C6.23102 18.7313 6.79843 17.8217 7.42094 17.2305L7.42913 17.2227L16.6517 8.73836C17.234 8.20267 18.1836 8.19754 18.773 8.72689C19.3622 9.25625 19.3679 10.1196 18.7856 10.6553L9.58115 19.1231C9.34771 19.3477 9.10943 19.7357 9.0502 20.1359C8.99914 20.481 9.07217 20.8387 9.47255 21.2038C10.0412 21.7222 10.4407 21.8057 10.6711 21.8016C10.9192 21.7971 11.3131 21.6844 11.8428 21.2147L23.9321 10.1082C24.3737 9.71169 24.7263 9.23764 24.9686 8.71295C25.211 8.18823 25.3379 7.62388 25.3416 7.05274C25.3452 6.48159 25.2257 5.91578 24.9902 5.38825C24.7547 4.86074 24.4082 4.38254 23.9717 3.98093C23.535 3.57935 23.0172 3.26234 22.4487 3.04749C21.8801 2.83265 21.2715 2.72398 20.6579 2.72736C20.0444 2.73073 19.4373 2.84609 18.8717 3.06718C18.306 3.28827 17.7924 3.61094 17.3613 4.01728L17.3487 4.02919L5.18227 15.2217L5.17452 15.2287C4.49384 15.837 3.95043 16.5647 3.57681 17.3699C3.20316 18.175 3.00699 19.0412 3.00018 19.9176C2.99337 20.7941 3.17606 21.6629 3.5372 22.4732C3.87572 23.2326 4.68883 24.2537 5.40965 24.9168C6.15032 25.5982 7.4219 26.4788 8.22472 26.7817C9.10058 27.1121 10.0384 27.2788 10.9839 27.2726C11.9293 27.2663 12.8645 27.0873 13.7349 26.7454C14.6055 26.4036 15.3947 25.9053 16.056 25.279L16.0635 25.2719L27.4331 14.8122C28.0154 14.2766 28.965 14.2714 29.5544 14.8008C30.1436 15.3302 30.1493 16.1936 29.567 16.7292L18.2124 27.1751C17.2773 28.0586 16.1601 28.7639 14.9247 29.2491C13.686 29.7356 12.3537 29.9909 11.0056 29.9998C9.65749 30.0086 8.3213 29.7709 7.07491 29.3008C5.75545 28.8029 4.15706 27.6445 3.27575 26.8337C2.37459 26.0047 1.28853 24.6903 0.756799 23.4973C0.247699 22.3551 -0.00932647 21.1319 0.00025853 19.8983C0.00984353 18.6649 0.285859 17.445 0.812719 16.3098C1.33811 15.1776 2.10276 14.1514 3.0633 13.2911L15.2087 2.11769C15.914 1.45453 16.7561 0.925395 17.6868 0.561645C18.6204 0.196722 19.6242 0.00571707 20.6397 0.000126154Z" fill="#A2A8B0"/>
</svg>
